<svg width="62" height="70" viewBox="0 0 62 70" fill="none" xmlns="http://www.w3.org/2000/svg">
<path d="M50.3904 36.7486C50.3405 37.1978 50.3167 37.5327 50.293 37.7466C50.2714 37.9159 50.1323 38.0467 49.9612 38.0554L49.9604 38.0555C49.8178 38.0555 49.5565 38.0793 49.1763 38.1054C48.8012 38.1497 48.3667 38.175 47.9264 38.175C47.8821 38.175 47.8379 38.1748 47.7938 38.1742H47.8005C47.254 38.1742 46.6813 38.079 46.066 38.079H38.5337C38.6302 38.8723 38.8917 39.5888 39.283 40.2157L39.2703 40.1938C39.6919 40.8284 40.2821 41.3207 40.9774 41.6124L41.0025 41.6218C41.8601 41.9981 42.8599 42.2171 43.9107 42.2171C43.9583 42.2171 44.0059 42.2166 44.0535 42.2157H44.0463C44.9309 42.1978 45.7819 42.1034 46.6074 41.939L46.515 41.9545C47.3034 41.8519 48.0179 41.6602 48.6906 41.3869L48.6323 41.4079C48.7511 41.3152 48.8224 41.3603 48.8224 41.598V45.2358C48.8181 45.3382 48.8002 45.4348 48.7704 45.5262L48.7725 45.5185C48.7291 45.5851 48.6745 45.6404 48.6108 45.6836L48.6088 45.6849C47.9237 45.9949 47.126 46.2424 46.2936 46.3888L46.2326 46.3977C45.321 46.5813 44.273 46.6865 43.2004 46.6865C43.0802 46.6865 42.9604 46.6852 42.8409 46.6825L42.8587 46.6828C42.7674 46.6855 42.66 46.687 42.5523 46.687C41.0179 46.687 39.5553 46.3799 38.2223 45.8236L38.2967 45.8512C37.1026 45.323 36.1 44.5571 35.3112 43.6071L35.3005 43.5939C34.5773 42.7177 34.015 41.6787 33.6769 40.5432L33.661 40.4812C33.3457 39.443 33.1642 38.2499 33.1642 37.0143C33.1642 35.6627 33.3814 34.3618 33.7829 33.1446L33.7579 33.2318C34.1637 31.9793 34.7718 30.8957 35.5526 29.9613L35.5401 29.9766C36.319 29.0394 37.2759 28.2792 38.3626 27.7419L38.4128 27.7194C39.4678 27.2486 40.6989 26.9745 41.994 26.9745C42.1301 26.9745 42.2654 26.9774 42.4 26.9835L42.381 26.9829C42.4405 26.9814 42.5107 26.9805 42.5812 26.9805C43.8421 26.9805 45.0395 27.2526 46.1178 27.7413L46.0639 27.7195C47.0626 28.1593 47.8989 28.8052 48.5492 29.608L48.5587 29.6203C49.1636 30.3919 49.6498 31.2917 49.9693 32.2671L49.9868 32.329C50.2716 33.1874 50.4359 34.1756 50.4359 35.2021V35.2292V35.2278C50.4359 35.7981 50.4121 36.297 50.3907 36.7485L50.3904 36.7486ZM31.7357 46.2316H26.7698C26.7599 46.2325 26.7486 46.2331 26.737 46.2331C26.5726 46.2331 26.4339 46.1232 26.3901 45.9728L26.3895 45.9702L24.4412 40.2676H15.6021L13.7963 45.8751C13.7571 46.0674 13.5894 46.2101 13.3884 46.2101C13.3731 46.2101 13.358 46.2092 13.343 46.2076L13.3448 46.2078H8.87787C8.61643 46.2078 8.54515 46.0652 8.61643 45.7801L16.2676 23.8465C16.3388 23.6088 16.4101 23.395 16.5052 23.1098C16.5958 22.6493 16.6477 22.1198 16.6477 21.5781V21.5647V21.5655C16.6465 21.5565 16.6458 21.546 16.6458 21.5355C16.6458 21.4208 16.7278 21.3253 16.8363 21.3044L16.8378 21.3041H22.9918C23.1581 21.3041 23.2769 21.3754 23.3007 21.4942L31.9735 45.8491C32.0447 46.1105 31.9757 46.2317 31.7358 46.2317L31.7357 46.2316ZM48.4634 7H11.6256C6.05303 7 1.53564 11.5174 1.53564 17.0899V17.0988V17.0982V52.5105C1.53564 58.083 6.05303 62.6004 11.6255 62.6004H48.4718C54.0444 62.6004 58.5618 58.083 58.5618 52.5105V52.5016V52.502V17.0983V17.09C58.5618 11.5174 54.0444 7 48.4719 7H48.4629H48.4634H48.4634ZM42.2144 31.0934C42.1585 31.09 42.093 31.0881 42.0272 31.0881C40.74 31.0881 39.6226 31.8151 39.063 32.8809L39.0542 32.8992C38.7909 33.3952 38.606 33.9738 38.5337 34.5868L38.5315 34.61H43.5426C44.1605 34.61 44.6118 34.61 44.897 34.5862C45.1025 34.5686 45.289 34.5001 45.4477 34.3934L45.4435 34.3961V34.1587V34.1569C45.4435 33.8429 45.3905 33.5412 45.2928 33.2604L45.2986 33.2795C44.8839 32.0006 43.7031 31.0921 42.3102 31.0921C42.2764 31.0921 42.2428 31.0927 42.2093 31.0937L42.2142 31.0935L42.2144 31.0934ZM21.8275 31.7826C21.5899 31.046 21.376 30.3332 21.1383 29.5968C20.9005 28.8604 20.6868 28.1712 20.4967 27.4822C20.3066 26.8168 20.1403 26.199 19.974 25.6287H19.9266C19.6704 26.8681 19.3915 27.8962 19.0598 28.9L19.1188 28.6939C18.7624 29.8344 18.406 31.0224 18.0259 32.2105C17.717 33.4223 17.3366 34.539 16.9805 35.537H23.0156C22.873 35.0382 22.683 34.4441 22.4691 33.8262C22.2553 33.1845 22.0414 32.4954 21.8277 31.7826L21.8275 31.7826Z" fill="white"/>
</svg>
