<svg width="72" height="71" viewBox="0 0 72 71" fill="none" xmlns="http://www.w3.org/2000/svg">
<path fill-rule="evenodd" clip-rule="evenodd" d="M21.4233 12.3125L21.5 12.3125H50.5L50.5768 12.3125C53.8115 12.3125 56.3414 12.3125 58.3142 12.5777C60.3312 12.8489 61.915 13.4138 63.1569 14.6557C64.3988 15.8975 64.9636 17.4813 65.2348 19.4984C65.5 21.4711 65.5 24.0009 65.5 27.2356V27.2357V27.3125V34.8125V34.8893V34.8894C65.5 38.1241 65.5 40.6539 65.2348 42.6267C64.9636 44.6437 64.3988 46.2275 63.1569 47.4694C61.915 48.7113 60.3312 49.2761 58.3142 49.5473C56.3414 49.8125 53.8116 49.8125 50.5768 49.8125H50.5767H50.5H43V56.6875H48C48.5523 56.6875 49 57.1352 49 57.6875C49 58.2398 48.5523 58.6875 48 58.6875H36H24C23.4477 58.6875 23 58.2398 23 57.6875C23 57.1352 23.4477 56.6875 24 56.6875H29V49.8125H21.5H21.4234H21.4232C18.1884 49.8125 15.6586 49.8125 13.6859 49.5473C11.6688 49.2761 10.085 48.7113 8.84315 47.4694C7.60126 46.2275 7.0364 44.6437 6.76521 42.6267C6.49998 40.6539 6.49999 38.1241 6.50001 34.8893L6.50001 34.8125V27.3125L6.50001 27.2358C6.49999 24.001 6.49998 21.4711 6.76521 19.4984C7.0364 17.4813 7.60126 15.8975 8.84315 14.6557C10.085 13.4138 11.6688 12.8489 13.6859 12.5777C15.6586 12.3125 18.1885 12.3125 21.4233 12.3125ZM31 56.6875H36H41V49.8125H31V56.6875ZM13.9524 14.5599C12.157 14.8012 11.0657 15.2615 10.2574 16.0699C9.44901 16.8782 8.98874 17.9695 8.74737 19.7649C8.50213 21.5889 8.50001 23.9844 8.50001 27.3125V34.8125C8.50001 38.1406 8.50213 40.5361 8.74737 42.3602C8.98874 44.1555 9.44901 45.2468 10.2574 46.0551C11.0657 46.8635 12.157 47.3238 13.9524 47.5651C15.7764 47.8104 18.1719 47.8125 21.5 47.8125H50.5C53.8281 47.8125 56.2236 47.8104 58.0477 47.5651C59.843 47.3238 60.9343 46.8635 61.7426 46.0551C62.551 45.2468 63.0113 44.1555 63.2526 42.3602C63.4979 40.5361 63.5 38.1406 63.5 34.8125V27.3125C63.5 23.9844 63.4979 21.5889 63.2526 19.7649C63.0113 17.9695 62.551 16.8782 61.7426 16.0699C60.9343 15.2615 59.843 14.8012 58.0477 14.5599C56.2236 14.3146 53.8281 14.3125 50.5 14.3125H21.5C18.1719 14.3125 15.7764 14.3146 13.9524 14.5599Z" fill="#F5F5F5"/>
</svg>
