<svg width="70" height="70" viewBox="0 0 70 70" fill="none" xmlns="http://www.w3.org/2000/svg">
<path d="M63.6127 29.8957C63.4377 29.7791 61.9793 28.6416 58.8293 28.6416C58.0127 28.6416 57.196 28.7291 56.3793 28.8749C55.7668 24.7916 52.3543 22.7207 52.2085 22.6332L51.3627 22.1374L50.8377 22.9249C50.1377 23.9749 49.5835 25.1707 49.3502 26.3957C48.7668 28.7291 49.1168 30.9457 50.3127 32.8416C48.8835 33.6582 46.5502 33.8624 46.0543 33.8624H7.64183C6.65016 33.8624 5.8335 34.6791 5.8335 35.6999C5.8335 39.0541 6.3585 42.4082 7.52516 45.5582C8.83766 49.0291 10.821 51.5957 13.3585 53.1707C16.2168 54.9207 20.9127 55.9124 26.2502 55.9124C28.5543 55.9124 30.946 55.7082 33.3085 55.2707C36.5752 54.6874 39.7252 53.5499 42.6127 51.8874C45.0043 50.5166 47.1335 48.7666 48.9418 46.6666C52.0043 43.2541 53.8127 39.3749 55.1252 36.0207H55.6793C59.0043 36.0207 61.0752 34.6791 62.2127 33.5416C62.971 32.8416 63.5252 31.9957 63.9335 31.0041L64.1668 30.3041L63.6127 29.8957ZM11.2293 32.7832H16.3627C16.596 32.7832 16.8293 32.5791 16.8293 32.3166V27.7082C16.8293 27.4749 16.6252 27.2416 16.3627 27.2416H11.2293C10.9668 27.2416 10.7627 27.4457 10.7627 27.7082V32.3166C10.7918 32.5791 10.9668 32.7832 11.2293 32.7832ZM18.3168 32.7832H23.4502C23.6835 32.7832 23.9168 32.5791 23.9168 32.3166V27.7082C23.9168 27.4749 23.7127 27.2416 23.4502 27.2416H18.3168C18.0543 27.2416 17.8502 27.4457 17.8502 27.7082V32.3166C17.8793 32.5791 18.0543 32.7832 18.3168 32.7832ZM25.521 32.7832H30.6252C30.9168 32.7832 31.121 32.5791 31.121 32.3166V27.7082C31.121 27.4749 30.946 27.2416 30.6252 27.2416H25.521C25.2877 27.2416 25.0835 27.4457 25.0835 27.7082V32.3166C25.0835 32.5791 25.2585 32.7832 25.521 32.7832ZM32.6377 32.7832H37.8002C38.0335 32.7832 38.2377 32.5791 38.2377 32.3166V27.7082C38.2377 27.4749 38.0627 27.2416 37.8002 27.2416H32.6377C32.4043 27.2416 32.2002 27.4457 32.2002 27.7082V32.3166C32.2002 32.5791 32.4043 32.7832 32.6377 32.7832ZM18.3168 26.2499H23.4502C23.6835 26.2499 23.9168 25.9874 23.9168 25.7249V21.1457C23.9168 20.8832 23.7127 20.6791 23.4502 20.6791H18.3168C18.0543 20.6791 17.8502 20.8541 17.8502 21.1457V25.7249C17.8793 25.9874 18.0543 26.2499 18.3168 26.2499ZM25.521 26.2499H30.6252C30.9168 26.2499 31.121 25.9874 31.121 25.7249V21.1457C31.121 20.8832 30.946 20.6791 30.6252 20.6791H25.521C25.2877 20.6791 25.0835 20.8541 25.0835 21.1457V25.7249C25.0835 25.9874 25.2585 26.2499 25.521 26.2499ZM32.6377 26.2499H37.8002C38.0335 26.2499 38.2377 25.9874 38.2377 25.7249V21.1457C38.2377 20.8832 38.0335 20.6791 37.8002 20.6791H32.6377C32.4043 20.6791 32.2002 20.8541 32.2002 21.1457V25.7249C32.2002 25.9874 32.4043 26.2499 32.6377 26.2499ZM32.6377 19.5999H37.8002C38.0335 19.5999 38.2377 19.3957 38.2377 19.1332V14.5832C38.2377 14.2916 38.0335 14.0874 37.8002 14.0874H32.6377C32.4043 14.0874 32.2002 14.2624 32.2002 14.5832V19.1332C32.2002 19.3666 32.4043 19.5999 32.6377 19.5999ZM39.8127 32.7832H44.946C45.2085 32.7832 45.4127 32.5791 45.4127 32.3166V27.7082C45.4127 27.4749 45.2085 27.2416 44.946 27.2416H39.8127C39.5793 27.2416 39.3752 27.4457 39.3752 27.7082V32.3166C39.3752 32.5791 39.5793 32.7832 39.8127 32.7832Z" fill="white"/>
</svg>
