<svg width="43" height="62" viewBox="0 0 43 62" fill="none" xmlns="http://www.w3.org/2000/svg">
    <path d="M29.4166 5.54169L28.5089 9.96807C27.0605 17.032 29.2573 24.3511 34.3564 29.4498C26.8763 29.7049 19.9382 33.4169 15.5752 39.498L13.5832 42.2746L14.2339 38.9199C15.6592 31.5725 13.5939 23.9796 8.64336 18.3664C15.8513 18.5726 22.6808 15.1442 26.8218 9.24082L29.4166 5.54169Z" fill="#070429"/>
    <path d="M28.2958 46.0415L27.9614 47.6721C27.4278 50.2744 28.2371 52.9707 30.1156 54.849C27.36 54.943 24.804 56.3105 23.1968 58.5507L22.4629 59.5736L22.7026 58.3377C23.2277 55.631 22.4669 52.8339 20.6431 50.766C23.2985 50.842 25.8144 49.579 27.3399 47.4042L28.2958 46.0415Z" fill="#070429"/>
</svg>