<svg width="70" height="70" viewBox="0 0 70 70" fill="none" xmlns="http://www.w3.org/2000/svg">
<path d="M35 35C35 32.6131 35.9482 30.3239 37.636 28.636C39.3239 26.9482 41.6131 26 44 26C46.3869 26 48.6761 26.9482 50.364 28.636C52.0518 30.3239 53 32.6131 53 35C53 37.3869 52.0518 39.6761 50.364 41.364C48.6761 43.0518 46.3869 44 44 44C41.6131 44 39.3239 43.0518 37.636 41.364C35.9482 39.6761 35 37.3869 35 35ZM17 53C17 50.6131 17.9482 48.3239 19.636 46.636C21.3239 44.9482 23.6131 44 26 44H35V53C35 55.3869 34.0518 57.6761 32.364 59.364C30.6761 61.0518 28.3869 62 26 62C23.6131 62 21.3239 61.0518 19.636 59.364C17.9482 57.6761 17 55.3869 17 53ZM35 8V26H44C46.3869 26 48.6761 25.0518 50.364 23.364C52.0518 21.6761 53 19.3869 53 17C53 14.6131 52.0518 12.3239 50.364 10.636C48.6761 8.94821 46.3869 8 44 8H35ZM17 17C17 19.3869 17.9482 21.6761 19.636 23.364C21.3239 25.0518 23.6131 26 26 26H35V8H26C23.6131 8 21.3239 8.94821 19.636 10.636C17.9482 12.3239 17 14.6131 17 17ZM17 35C17 37.3869 17.9482 39.6761 19.636 41.364C21.3239 43.0518 23.6131 44 26 44H35V26H26C23.6131 26 21.3239 26.9482 19.636 28.636C17.9482 30.3239 17 32.6131 17 35Z" fill="white"/>
</svg>
