<svg width="70" height="70" viewBox="0 0 70 70" fill="none" xmlns="http://www.w3.org/2000/svg">
<path d="M35.0002 5.83325C31.1699 5.83325 27.3772 6.58767 23.8386 8.05343C20.2999 9.51919 17.0846 11.6676 14.3762 14.376C8.9064 19.8458 5.8335 27.2644 5.8335 34.9999C5.8335 47.8916 14.2043 58.8291 25.7835 62.7083C27.2418 62.9416 27.7085 62.0374 27.7085 61.2499C27.7085 60.5791 27.7085 58.7416 27.7085 56.3208C19.6293 58.0708 17.9085 52.4124 17.9085 52.4124C16.5668 49.0291 14.671 48.1249 14.671 48.1249C12.0168 46.3166 14.8752 46.3749 14.8752 46.3749C17.7918 46.5791 19.3377 49.3791 19.3377 49.3791C21.8752 53.8124 26.1627 52.4999 27.8252 51.7999C28.0877 49.9041 28.846 48.6208 29.6627 47.8916C23.1877 47.1624 16.3918 44.6541 16.3918 33.5416C16.3918 30.3041 17.5002 27.7083 19.396 25.6374C19.1043 24.9083 18.0835 21.8749 19.6877 17.9374C19.6877 17.9374 22.1377 17.1499 27.7085 20.9124C30.0127 20.2708 32.521 19.9499 35.0002 19.9499C37.4793 19.9499 39.9877 20.2708 42.2918 20.9124C47.8627 17.1499 50.3127 17.9374 50.3127 17.9374C51.9168 21.8749 50.896 24.9083 50.6043 25.6374C52.5002 27.7083 53.6085 30.3041 53.6085 33.5416C53.6085 44.6833 46.7835 47.1333 40.2793 47.8624C41.3293 48.7666 42.2918 50.5458 42.2918 53.2583C42.2918 57.1666 42.2918 60.3166 42.2918 61.2499C42.2918 62.0374 42.7585 62.9708 44.246 62.7083C55.8252 58.7999 64.1668 47.8916 64.1668 34.9999C64.1668 31.1697 63.4124 27.377 61.9466 23.8383C60.4809 20.2997 58.3325 17.0843 55.6241 14.376C52.9157 11.6676 49.7004 9.51919 46.1618 8.05343C42.6231 6.58767 38.8304 5.83325 35.0002 5.83325Z" fill="white"/>
</svg>
