<svg width="70" height="70" viewBox="0 0 70 70" fill="none" xmlns="http://www.w3.org/2000/svg">
	<path d="M20.4533 34.1566V34.1677L19.5357 38.1509C19.4862 38.3763 19.2608 38.541 19.0013 38.541H17.8924C17.8524 38.5412 17.8135 38.5543 17.7816 38.5782C17.7496 38.6022 17.7262 38.6359 17.7148 38.6742C16.6921 42.1435 15.3075 44.5277 13.479 45.9593C11.9236 47.1783 10.0063 47.7469 7.44445 47.7469C5.14298 47.7469 3.59103 47.0068 2.27469 45.5453C0.534936 43.6143 -0.183845 40.4524 0.251521 36.6433C1.03689 29.4922 4.74603 22.2763 11.8877 22.2763C14.0603 22.2575 15.7659 22.9276 16.9525 24.2653C18.2074 25.6807 18.8442 27.8114 18.8476 30.6011C18.8445 30.7234 18.7938 30.8397 18.7063 30.9251C18.6187 31.0106 18.5013 31.0585 18.379 31.0587H13.146C13.0543 31.0559 12.9672 31.018 12.9026 30.9529C12.8379 30.8878 12.8007 30.8004 12.7986 30.7087C12.7559 28.7794 12.184 27.8404 11.0469 27.8404C9.04079 27.8404 7.85762 30.5636 7.23018 32.0728C6.35347 34.1814 5.90701 36.4718 5.99494 38.7527C6.03676 39.8147 6.2075 41.3077 7.21567 41.9266C8.10945 42.4747 9.38481 42.111 10.1574 41.5041C10.9291 40.8963 11.5505 39.8454 11.8118 38.8868C11.8485 38.7536 11.851 38.6503 11.816 38.6042C11.7793 38.5564 11.6777 38.5453 11.6001 38.5453H10.2564C10.1853 38.5455 10.115 38.5302 10.0504 38.5004C9.9858 38.4706 9.9285 38.4271 9.8825 38.3728C9.84719 38.3305 9.82213 38.2806 9.80925 38.227C9.79637 38.1734 9.79602 38.1176 9.80823 38.0638L10.7268 34.0738C10.772 33.8698 10.9573 33.7153 11.1852 33.688V33.6777H20.0035C20.024 33.6777 20.0453 33.6777 20.0649 33.682C20.2937 33.7119 20.4551 33.9244 20.4508 34.1566H20.4533Z" fill="white"/>
	<path d="M35.6356 29.5793C35.6316 29.7007 35.5806 29.8157 35.4933 29.9002C35.406 29.9846 35.2893 30.0318 35.1678 30.0317H30.3481C30.0322 30.0317 29.7684 29.7756 29.7684 29.464C29.7684 28.0581 29.2819 27.3734 28.2865 27.3734C27.2911 27.3734 26.6492 27.9846 26.6304 29.0526C26.609 30.2434 27.2826 31.3259 29.1999 33.1851C31.7242 35.5532 32.7358 37.6506 32.6871 40.4233C32.6077 44.9067 29.5593 47.8049 24.9205 47.8049C22.5516 47.8049 20.7419 47.1715 19.5382 45.9217C18.3166 44.6523 17.7566 42.7896 17.8736 40.3857C17.8776 40.2642 17.9287 40.149 18.0162 40.0645C18.1037 39.9801 18.2206 39.933 18.3422 39.9333H23.3276C23.397 39.9344 23.4654 39.9509 23.5277 39.9816C23.5899 40.0123 23.6447 40.0565 23.6878 40.1109C23.7255 40.1558 23.7531 40.2084 23.7687 40.2649C23.7843 40.3215 23.7876 40.3807 23.7783 40.4387C23.7228 41.306 23.8739 41.9539 24.2154 42.3124C24.4339 42.5446 24.7387 42.6624 25.1186 42.6624C26.0397 42.6624 26.5792 42.012 26.5997 40.8783C26.6167 39.8983 26.3069 39.0395 24.6183 37.3023C22.4372 35.1716 20.4815 32.97 20.5421 29.5084C20.578 27.5006 21.3753 25.6644 22.7881 24.3378C24.282 22.9361 26.3248 22.1951 28.6962 22.1951C31.072 22.2122 32.8723 22.89 34.0478 24.2098C35.161 25.4604 35.6962 27.2667 35.6373 29.5793H35.6356Z" fill="white"/>
	<path d="M50.575 46.9615L50.6066 23.1163C50.6075 23.0566 50.5964 22.9973 50.5741 22.9419C50.5518 22.8865 50.5186 22.8361 50.4765 22.7937C50.4345 22.7513 50.3844 22.7178 50.3291 22.695C50.2739 22.6723 50.2147 22.6608 50.155 22.6613H42.6957C42.4447 22.6613 42.3346 22.8772 42.2629 23.0198L31.4624 46.8155V46.8198L31.4582 46.8258C31.3386 47.1186 31.5657 47.4319 31.8824 47.4319H37.0966C37.3783 47.4319 37.5652 47.3465 37.6566 47.1689L38.6921 44.6805C38.8192 44.3485 38.8432 44.3177 39.2051 44.3177H44.1871C44.5336 44.3177 44.5405 44.3246 44.5353 44.6635L44.4235 46.9769C44.4226 47.0365 44.4336 47.0957 44.4559 47.1511C44.4782 47.2064 44.5113 47.2567 44.5532 47.2991C44.5952 47.3415 44.6452 47.3751 44.7004 47.3979C44.7555 47.4207 44.8146 47.4322 44.8742 47.4319H50.1422C50.2074 47.4327 50.272 47.4192 50.3314 47.3923C50.3909 47.3655 50.4437 47.326 50.4862 47.2765C50.5229 47.2335 50.5498 47.1831 50.5651 47.1287C50.5805 47.0744 50.5838 47.0173 50.575 46.9615ZM41.3469 39.0003C41.3076 39.0005 41.2683 38.9991 41.2291 38.996C41.2109 38.9945 41.1931 38.989 41.1772 38.9799C41.1613 38.9708 41.1476 38.9583 41.137 38.9434C41.1264 38.9284 41.1193 38.9113 41.116 38.8933C41.1127 38.8752 41.1135 38.8567 41.1182 38.839C41.1284 38.8048 41.1429 38.7579 41.1642 38.7007L44.8999 29.4572C44.9334 29.366 44.9722 29.2768 45.016 29.19C45.0766 29.0654 45.15 29.0569 45.173 29.1491C45.1927 29.2259 44.7445 38.64 44.7445 38.64C44.7095 38.9926 44.6933 39.0071 44.3458 39.0361L41.3503 39.002H41.3435L41.3469 39.0003Z" fill="white"/>
	<path d="M61.2012 22.6613H57.2411C57.0319 22.6613 56.7972 22.7722 56.7425 23.0215L51.2313 46.9495C51.2193 47.0035 51.2198 47.0595 51.2328 47.1132C51.2458 47.167 51.271 47.217 51.3064 47.2594C51.3524 47.3135 51.4096 47.3569 51.474 47.3867C51.5384 47.4165 51.6085 47.4319 51.6795 47.4319H56.629C56.8953 47.4319 57.0772 47.3013 57.1267 47.075L57.7277 44.363C57.7703 44.1513 57.6969 43.9874 57.5074 43.8883C57.4185 43.8425 57.3297 43.7964 57.2411 43.75L56.3831 43.3036L55.5295 42.858L55.1991 42.6864C55.1722 42.673 55.1497 42.6522 55.1341 42.6265C55.1186 42.6009 55.1106 42.5713 55.1112 42.5413C55.1123 42.4968 55.1308 42.4545 55.1627 42.4236C55.1947 42.3926 55.2375 42.3754 55.2819 42.3756L57.994 42.3876C58.805 42.3919 59.6168 42.3347 60.415 42.1878C66.032 41.1506 69.7625 36.6519 69.8701 30.5303C69.9623 25.3059 67.0462 22.6587 61.2055 22.6587L61.2012 22.6613ZM59.8533 36.9003H59.7474C59.5092 36.9003 59.4674 36.8747 59.4606 36.8661C59.4563 36.8602 61.0245 29.9745 61.0253 29.9652C61.0655 29.7663 61.0638 29.6519 60.9408 29.5844C60.7838 29.4974 58.4942 28.2903 58.4942 28.2903C58.4676 28.2763 58.4454 28.2551 58.4302 28.2292C58.415 28.2032 58.4073 28.1735 58.408 28.1434C58.4091 28.0996 58.4273 28.0579 58.4588 28.0273C58.4902 27.9967 58.5323 27.9795 58.5762 27.9795H62.1966C63.3234 28.0137 63.9517 29.0219 63.9218 30.7437C63.8697 33.7238 62.4527 36.7953 59.8533 36.9003Z" fill="white"/>
</svg>
