<svg width="62" height="70" viewBox="0 0 62 70" fill="none" xmlns="http://www.w3.org/2000/svg">
<path d="M44.1044 24.4881C43.595 25.0054 42.887 25.3258 42.1042 25.3258C42.0453 25.3258 41.9868 25.324 41.9288 25.3205L41.9368 25.3208C41.9179 25.3212 41.8957 25.3214 41.8733 25.3214C41.0735 25.3214 40.348 25.0037 39.8161 24.4873L39.8169 24.4881C39.3142 23.9402 39.0062 23.2067 39.0062 22.4014C39.0062 22.3654 39.0068 22.3295 39.008 22.2939V22.2991C39.0068 22.2693 39.0062 22.2342 39.0062 22.1991C39.0062 21.4075 39.334 20.6924 39.8613 20.1823L39.8621 20.1817C40.4096 19.6658 41.1495 19.3488 41.9633 19.3488H41.9856H41.9844C42.0288 19.3464 42.0807 19.345 42.1329 19.345C42.9207 19.345 43.6339 19.6647 44.1496 20.1815C44.6374 20.7138 44.9362 21.4261 44.9362 22.2081C44.9362 22.2401 44.9358 22.272 44.9347 22.3038L44.9349 22.2992C44.9361 22.3313 44.9367 22.3689 44.9367 22.4067C44.9367 23.2141 44.6197 23.9476 44.1033 24.4894L44.1045 24.4882L44.1044 24.4881ZM44.6017 45.9734C44.6017 46.2352 44.5088 46.3542 44.2948 46.3542H39.6289C39.621 46.3548 39.6118 46.3553 39.6025 46.3553C39.4181 46.3553 39.2686 46.2058 39.2686 46.0213C39.2686 46.0043 39.2698 45.9877 39.2723 45.9715L39.272 45.9733V27.6525C39.272 27.4145 39.3696 27.3193 39.5838 27.3193H44.2948C44.509 27.3193 44.6017 27.4383 44.6017 27.6525L44.6017 45.9734ZM36.5119 46.3304H31.5368C31.5269 46.3314 31.5153 46.332 31.5038 46.332C31.3397 46.332 31.2014 46.2217 31.159 46.0712L31.1584 46.0687L29.2074 40.406H20.3562L18.548 45.9974C18.5079 46.1912 18.3387 46.3348 18.1359 46.3348C18.1219 46.3348 18.1079 46.334 18.0941 46.3327L18.0959 46.3328H13.6227C13.361 46.3328 13.2896 46.1877 13.361 45.9046L21.0224 23.8459C21.0938 23.6079 21.1652 23.3462 21.2604 23.0607C21.3512 22.5996 21.4031 22.0692 21.4031 21.5269V21.5133V21.514C21.4019 21.5051 21.4013 21.4947 21.4013 21.4841C21.4013 21.3692 21.4834 21.2735 21.5921 21.2526L21.5936 21.2523H27.756C27.9464 21.2523 28.0416 21.3237 28.0654 21.4427L36.7498 45.95C36.8212 46.2091 36.7498 46.3305 36.5118 46.3305L36.5119 46.3304ZM48.5275 7.00006H11.6394C6.05928 7.00006 1.53564 11.5236 1.53564 17.1038V17.1127V17.1123V52.5728C1.53564 58.1529 6.05928 62.6765 11.6394 62.6765H48.5361C54.1162 62.6765 58.6399 58.1529 58.6399 52.5728V52.5638V52.5643V17.1123V17.1038C58.6399 11.5236 54.1162 7 48.5361 7H48.5272H48.5276L48.5275 7.00006ZM26.5901 31.8165C26.3521 31.0789 26.1381 30.3651 25.9001 29.6275C25.6621 28.8898 25.4481 28.1999 25.2577 27.5098C25.0673 26.8437 24.9008 26.2251 24.7342 25.654H24.6866C24.43 26.8952 24.1508 27.9246 23.8185 28.9298L23.8777 28.7233C23.5207 29.8653 23.1639 31.055 22.7832 32.2447C22.45 33.4582 22.0931 34.5765 21.7363 35.5758H27.7796C27.6368 35.0738 27.4465 34.4814 27.2324 33.8604C27.0185 33.2204 26.8043 32.5304 26.5902 31.8166L26.5901 31.8165Z" fill="white"/>
</svg>
