<svg width="70" height="70" viewBox="0 0 70 70" fill="none" xmlns="http://www.w3.org/2000/svg">
<path d="M8.75 8.75H61.25V61.25H8.75V8.75ZM22.5458 52.6167C23.7125 55.0958 26.0167 57.1375 29.9542 57.1375C34.3292 57.1375 37.3333 54.8042 37.3333 49.7V32.8417H32.375V49.5833C32.375 52.0917 31.3542 52.7333 29.75 52.7333C28.0583 52.7333 27.3583 51.5667 26.5708 50.1958L22.5458 52.6167ZM39.9875 52.0917C41.4458 54.95 44.3917 57.1375 49 57.1375C53.6667 57.1375 57.1667 54.7167 57.1667 50.2542C57.1667 46.1417 54.8042 44.3042 50.6042 42.4958L49.3792 41.9708C47.25 41.0667 46.3458 40.4542 46.3458 38.9958C46.3458 37.8 47.25 36.8667 48.7083 36.8667C50.1083 36.8667 51.0417 37.4792 51.8875 38.9958L55.7083 36.4583C54.1042 33.6583 51.8292 32.5792 48.7083 32.5792C44.3042 32.5792 41.475 35.3792 41.475 39.0833C41.475 43.1083 43.8375 45.0042 47.3958 46.5208L48.6208 47.0458C50.8958 48.0375 52.2375 48.65 52.2375 50.3417C52.2375 51.7417 50.925 52.7625 48.8833 52.7625C46.4625 52.7625 45.0625 51.5083 44.0125 49.7583L39.9875 52.0917Z" fill="white"/>
</svg>
