<svg width="72" height="71" viewBox="0 0 72 71" fill="none" xmlns="http://www.w3.org/2000/svg">
<path fill-rule="evenodd" clip-rule="evenodd" d="M26 12.3125L25.9232 12.3125C22.6885 12.3125 20.1586 12.3125 18.1859 12.5777C16.1688 12.8489 14.585 13.4138 13.3431 14.6557C12.1013 15.8975 11.5364 17.4813 11.2652 19.4984C11 21.4711 11 24.001 11 27.2358V27.3125V50.7708H7.5H6.5V51.7708V54.1875C6.5 56.6728 8.51472 58.6875 11 58.6875H61C63.4853 58.6875 65.5 56.6728 65.5 54.1875V51.7708V50.7708H64.5H61V27.3125V27.2357V27.2356C61 24.0009 61 21.4711 60.7348 19.4984C60.4636 17.4813 59.8988 15.8975 58.6569 14.6557C57.415 13.4138 55.8312 12.8489 53.8142 12.5777C51.8414 12.3125 49.3115 12.3125 46.0768 12.3125L46 12.3125H26ZM59 50.7708V27.3125C59 23.9844 58.9979 21.5889 58.7526 19.7649C58.5113 17.9695 58.051 16.8782 57.2426 16.0699C56.4343 15.2615 55.343 14.8012 53.5477 14.5599C51.7236 14.3146 49.3281 14.3125 46 14.3125H26C22.6719 14.3125 20.2764 14.3146 18.4523 14.5599C16.657 14.8012 15.5657 15.2615 14.7574 16.0699C13.949 16.8782 13.4887 17.9695 13.2474 19.7649C13.0021 21.5889 13 23.9844 13 27.3125V50.7708H59ZM8.5 54.1875V52.7708H63.5V54.1875C63.5 55.5682 62.3807 56.6875 61 56.6875H11C9.61929 56.6875 8.5 55.5682 8.5 54.1875Z" fill="#F5F5F5"/>
</svg>
