<svg width="25" height="25" viewBox="0 0 25 25" fill="none" xmlns="http://www.w3.org/2000/svg">
    <path d="M3.68457 7.40289C3.68457 6.85061 4.13229 6.40289 4.68457 6.40289H20.6846C21.2369 6.40289 21.6846 6.85061 21.6846 7.40289V7.40289C21.6846 7.95518 21.2369 8.40289 20.6846 8.40289H4.68457C4.13229 8.40289 3.68457 7.95518 3.68457 7.40289V7.40289ZM3.68457 12.4029C3.68457 11.8506 4.13229 11.4029 4.68457 11.4029H20.6846C21.2369 11.4029 21.6846 11.8506 21.6846 12.4029V12.4029C21.6846 12.9552 21.2369 13.4029 20.6846 13.4029H4.68457C4.13229 13.4029 3.68457 12.9552 3.68457 12.4029V12.4029ZM3.68457 17.4029C3.68457 16.8506 4.13229 16.4029 4.68457 16.4029H20.6846C21.2369 16.4029 21.6846 16.8506 21.6846 17.4029V17.4029C21.6846 17.9552 21.2369 18.4029 20.6846 18.4029H4.68457C4.13229 18.4029 3.68457 17.9552 3.68457 17.4029V17.4029Z" fill="white"/>
</svg>
