<svg width="70" height="70" viewBox="0 0 70 70" fill="none" xmlns="http://www.w3.org/2000/svg">
<path d="M58.7563 17.7829L37.5061 5.03802C36.7428 4.60287 35.8794 4.37402 35.0008 4.37402C34.1221 4.37402 33.2587 4.60287 32.4954 5.03802L11.2438 17.7816C10.478 18.2509 9.84611 18.9098 9.40927 19.6946C8.97243 20.4794 8.74539 21.3637 8.75007 22.2618V47.7148C8.74548 48.6135 8.97252 49.4983 9.40932 50.2837C9.84612 51.0692 10.4779 51.7289 11.2438 52.1992L16.8165 55.5269L16.8479 55.5447C19.6616 56.9843 20.7389 56.9843 21.9872 56.9843C26.3813 56.9843 29.1116 54.1406 29.1116 49.5618V24.8827C29.1141 24.5746 28.9944 24.2781 28.7786 24.0582C28.5628 23.8383 28.2685 23.7129 27.9604 23.7097H24.9007C24.5926 23.7129 24.2983 23.8383 24.0825 24.0582C23.8667 24.2781 23.7469 24.5746 23.7495 24.8827V49.5618C23.7606 49.9152 23.6802 50.2653 23.5162 50.5784C23.3521 50.8915 23.1098 51.1569 22.813 51.3488C22.0063 51.8409 20.8346 51.737 19.5126 51.0548L14.1723 47.8406C14.1519 47.8266 14.1352 47.8078 14.1238 47.7859C14.1123 47.764 14.1065 47.7395 14.1067 47.7148V22.6214C14.1076 22.5926 14.1154 22.5644 14.1294 22.5391C14.1434 22.5139 14.1633 22.4924 14.1874 22.4765L34.9468 9.76165C34.9623 9.75395 34.9793 9.74993 34.9967 9.74993C35.014 9.74993 35.031 9.75395 35.0466 9.76165L55.8182 22.4765C55.8419 22.4937 55.861 22.5164 55.8741 22.5426C55.8872 22.5687 55.8938 22.5976 55.8934 22.6269V47.7148C55.8939 47.7407 55.8887 47.7664 55.8781 47.7901C55.8674 47.8137 55.8517 47.8347 55.8319 47.8515L35.0425 60.245C35.007 60.2573 34.9685 60.2573 34.9331 60.245L29.6243 57.0923C29.4667 56.9893 29.2846 56.9298 29.0966 56.92C28.9086 56.9102 28.7213 56.9503 28.5538 57.0363L28.5073 57.0636C27.0417 57.9318 26.6479 58.1574 25.2889 58.6523C25.0675 58.7329 24.5466 58.9257 24.5014 59.4411C24.4563 59.9566 24.9512 60.323 25.3915 60.5786L32.4872 64.9359C33.2432 65.3887 34.1078 65.6283 34.9891 65.629H35.0684C35.9277 65.6156 36.7683 65.3765 37.5061 64.9359L58.7563 52.2033C59.5218 51.7315 60.1532 51.071 60.5899 50.285C61.0266 49.499 61.2539 48.6139 61.2501 47.7148V22.2618C61.2544 21.3639 61.0272 20.48 60.5904 19.6955C60.1535 18.9109 59.5219 18.2522 58.7563 17.7829Z" fill="white"/>
<path d="M42.0931 43.4833C36.9949 43.4833 35.908 42.0587 35.5853 39.7591C35.549 39.4853 35.4155 39.2337 35.2093 39.05C35.003 38.8663 34.7376 38.7628 34.4615 38.7583H31.7545C31.4494 38.7648 31.1593 38.8919 30.9476 39.1117C30.736 39.3316 30.62 39.6263 30.6252 39.9314C30.6252 41.9248 31.3252 48.4312 42.0986 48.4312C45.4318 48.4312 48.2045 47.6519 50.1144 46.1767C52.0244 44.7015 53.047 42.555 53.047 39.997C53.047 34.8632 49.6974 33.4578 43.1007 32.539C36.3947 31.6066 36.3947 31.1322 36.3947 30.0931C36.3947 29.3453 36.3947 27.5939 41.2427 27.5939C44.6922 27.5939 46.5392 28.03 47.1299 30.3283C47.1822 30.5831 47.3199 30.8124 47.5203 30.9782C47.7207 31.144 47.9717 31.2365 48.2318 31.2402H50.9484C51.1085 31.2386 51.2664 31.2029 51.4117 31.1355C51.5569 31.0681 51.6861 30.9705 51.7906 30.8492C51.9995 30.6053 52.1036 30.2889 52.0804 29.9687C51.7291 25.1084 48.1758 22.6433 41.2468 22.6433C34.9496 22.6433 31.1912 25.4802 31.1912 30.2312C31.1912 35.4402 35.0863 36.9126 40.9379 37.5224C47.7738 38.2292 47.7738 39.2601 47.7738 40.1707C47.7779 41.5898 47.1886 43.4833 42.0931 43.4833Z" fill="white"/>
</svg>
