<svg width="70" height="71" viewBox="0 0 70 71" fill="none" xmlns="http://www.w3.org/2000/svg">
<path fill-rule="evenodd" clip-rule="evenodd" d="M32.9585 9.35413L32.8817 9.35413C29.647 9.35412 27.1171 9.3541 25.1444 9.61933C23.1273 9.89052 21.5435 10.4554 20.3016 11.6973C19.0598 12.9392 18.4949 14.5229 18.2237 16.54C17.9585 18.5127 17.9585 21.0426 17.9585 24.2774L17.9585 24.3541V46.6458L17.9585 46.7225C17.9585 49.9573 17.9585 52.4872 18.2237 54.4599C18.4949 56.477 19.0598 58.0608 20.3016 59.3027C21.5435 60.5445 23.1273 61.1094 25.1444 61.3806C27.1171 61.6458 29.6469 61.6458 32.8816 61.6458H32.8817H32.9585H37.0418H37.1186H37.1187C40.3535 61.6458 42.8833 61.6458 44.856 61.3806C46.8731 61.1094 48.4568 60.5445 49.6987 59.3027C50.9406 58.0608 51.5054 56.477 51.7766 54.4599C52.0419 52.4872 52.0419 49.9574 52.0418 46.7227V46.7226V46.6458V24.3541V24.2773V24.2772C52.0419 21.0425 52.0419 18.5127 51.7766 16.54C51.5054 14.5229 50.9406 12.9392 49.6987 11.6973C48.4568 10.4554 46.8731 9.89052 44.856 9.61933C42.8832 9.3541 40.3534 9.35412 37.1186 9.35413L37.0418 9.35413H32.9585ZM21.7159 13.1115C22.5242 12.3031 23.6155 11.8429 25.4108 11.6015C27.2349 11.3563 29.6304 11.3541 32.9585 11.3541H37.0418C40.3699 11.3541 42.7654 11.3563 44.5895 11.6015C46.3848 11.8429 47.4761 12.3031 48.2845 13.1115C49.0928 13.9198 49.5531 15.0112 49.7945 16.8065C50.0397 18.6306 50.0418 21.026 50.0418 24.3541V46.6458C50.0418 49.9739 50.0397 52.3694 49.7945 54.1935C49.5531 55.9888 49.0928 57.0801 48.2845 57.8884C47.4761 58.6968 46.3848 59.1571 44.5895 59.3984C42.7654 59.6437 40.3699 59.6458 37.0418 59.6458H32.9585C29.6304 59.6458 27.2349 59.6437 25.4108 59.3984C23.6155 59.1571 22.5242 58.6968 21.7159 57.8884C20.9075 57.0801 20.4472 55.9888 20.2059 54.1935C19.9606 52.3694 19.9585 49.9739 19.9585 46.6458V24.3541C19.9585 21.026 19.9606 18.6306 20.2059 16.8065C20.4472 15.0112 20.9075 13.9198 21.7159 13.1115ZM34.9996 53.5457C36.1272 53.5457 37.0413 52.6185 37.0413 51.4748C37.0413 50.3311 36.1272 49.404 34.9996 49.404C33.872 49.404 32.9579 50.3311 32.9579 51.4748C32.9579 52.6185 33.872 53.5457 34.9996 53.5457Z" fill="#F5F5F5"/>
</svg>
