<svg width="71" height="70" viewBox="0 0 71 70" fill="none" xmlns="http://www.w3.org/2000/svg">
<path d="M53.4999 8H17.5C12.55 8 8.5 12.05 8.5 17V53C8.5 57.95 12.55 62 17.5 62H53.5C58.45 62 62.5 57.95 62.5 53V17C62.4999 12.05 58.4499 8 53.4999 8ZM34.3723 35.478C32.498 37.3523 29.5523 38.2324 26.2244 38.2324C25.3446 38.2324 24.5413 38.1939 23.9292 38.0791V47.7954H19.2627V22.3573C20.9458 22.0514 23.2793 21.8216 26.4539 21.8216C29.897 21.8216 32.4216 22.5485 34.0666 23.9257C35.5967 25.1882 36.5911 27.2155 36.5911 29.6254C36.591 32.0737 35.8261 34.1009 34.3723 35.478ZM44.1633 48.1782C41.9063 48.1782 39.879 47.6426 38.5019 46.8774L39.4199 43.473C40.4909 44.1233 42.5185 44.812 44.2015 44.812C46.267 44.812 47.1854 43.9704 47.1854 42.7461C47.1854 41.4841 46.4204 40.8335 44.125 40.0303C40.4908 38.7678 38.9611 36.7788 38.9993 34.5983C38.9993 31.3085 41.7151 28.7457 46.0376 28.7457C48.1035 28.7457 49.9013 29.2813 50.9721 29.8548L50.0541 33.1829C49.2508 32.724 47.7588 32.1119 46.114 32.1119C44.4309 32.1119 43.5129 32.9152 43.5129 34.0626C43.5129 35.2487 44.3927 35.8226 46.7645 36.6641C50.1306 37.888 51.6991 39.6094 51.7373 42.3639C51.7372 45.7301 49.098 48.1782 44.1633 48.1782ZM31.8859 29.8166C31.8859 32.8387 29.7435 34.56 26.2244 34.56C25.2682 34.56 24.5031 34.5218 23.9292 34.3689V25.6471C24.4267 25.5324 25.3447 25.4177 26.6454 25.4177C29.897 25.4177 31.8859 26.9478 31.8859 29.8166Z" fill="white"/>
</svg>
