<svg width="70" height="70" viewBox="0 0 70 70" fill="none" xmlns="http://www.w3.org/2000/svg">
<path d="M35 52.7333C15.6625 52.7333 0 44.7999 0 34.9999C0 25.1999 15.6625 17.2666 35 17.2666C54.3375 17.2666 70 25.1999 70 34.9999C70 44.7999 54.3375 52.7333 35 52.7333ZM19.8625 29.5458C21.4375 29.5458 22.5167 29.8374 23.0417 30.4499C23.5667 31.0333 23.6833 32.0833 23.4208 33.4541C23.1292 34.9999 22.575 35.9916 21.7292 36.6333C20.9125 37.2749 19.6583 37.5958 17.9667 37.5958H15.4292L16.975 29.5458H19.8625ZM9.65417 45.7333H13.8542L14.8458 40.6291H18.4333C20.0083 40.6291 21.2917 40.4541 22.3125 40.1333C23.3333 39.7833 24.2667 39.2291 25.1125 38.4416C25.8125 37.7999 26.3667 37.0999 26.8042 36.3124C27.2417 35.5541 27.5625 34.6791 27.7083 33.7458C28.175 31.4708 27.8542 29.6916 26.7458 28.4374C25.6083 27.1541 23.8583 26.5416 21.4375 26.5416H13.3875L9.65417 45.7333ZM30.8 21.4374L27.0667 40.6291H31.2083L33.3667 29.6333H36.6917C37.7417 29.6333 38.4417 29.8083 38.7625 30.1583C39.0833 30.5083 39.1417 31.1499 38.9667 32.0833L37.3042 40.6291H41.5333L43.2542 31.6749C43.6333 29.8666 43.3417 28.5541 42.4667 27.7083C41.5917 26.9208 39.9875 26.5416 37.6542 26.5416H33.95L35 21.4374H30.8ZM52.5 29.5458C54.1042 29.5458 55.1542 29.8374 55.6792 30.4499C56.2042 31.0333 56.3208 32.0833 56.0583 33.4541C55.7667 34.9999 55.2125 35.9916 54.3958 36.6333C53.55 37.2749 52.2958 37.5958 50.6042 37.5958H48.125L49.5833 29.5458H52.5ZM42.2917 45.7333H46.4917L47.4833 40.6291H51.0417C52.6458 40.6291 53.9583 40.4541 54.9792 40.1333C56 39.7833 56.875 39.2291 57.75 38.4416C58.45 37.7999 59.0333 37.0999 59.4417 36.3124C59.8792 35.5541 60.2 34.6791 60.375 33.7458C60.8125 31.4708 60.4917 29.6916 59.3833 28.4374C58.3333 27.1541 56.4958 26.5416 54.075 26.5416H46.0542L42.2917 45.7333Z" fill="white"/>
</svg>
