<svg width="61" height="70" viewBox="0 0 61 70" fill="none" xmlns="http://www.w3.org/2000/svg">
<path d="M47.385 27.2244V31.8642C47.385 32.0546 47.266 32.126 47.0042 32.126C46.8922 32.1216 46.7606 32.1191 46.6285 32.1191C45.1106 32.1191 43.6693 32.4458 42.3706 33.0327L42.4358 33.0063C41.9602 33.2239 41.5568 33.5206 41.225 33.8839L41.2224 33.8867V46.0212C41.2224 46.2592 41.1272 46.3544 40.913 46.3544H36.2261C36.2109 46.3568 36.1933 46.3583 36.1756 46.3583C36.007 46.3583 35.8677 46.2331 35.8455 46.0706L35.8453 46.0688V32.792L35.8215 31.0074L35.7739 29.1516C35.7739 28.6043 35.7263 28.0808 35.6787 27.5336C35.6771 27.5233 35.6762 27.5116 35.6762 27.4995C35.6762 27.3928 35.7466 27.3024 35.8435 27.2724L35.8452 27.2719H40.0818C40.313 27.2719 40.5065 27.4331 40.5559 27.6494L40.5565 27.6526C40.7532 28.2784 40.8665 28.9979 40.8665 29.7441C40.8665 29.7784 40.8663 29.8126 40.8659 29.8468V29.8417C41.582 29.0182 42.4329 28.3344 43.388 27.8189L43.4356 27.7955C44.4678 27.2116 45.7024 26.8675 47.0174 26.8675C47.0296 26.8675 47.0418 26.8675 47.0541 26.8676H47.0522C47.0638 26.8659 47.0773 26.865 47.0908 26.865C47.2432 26.865 47.3687 26.98 47.3851 27.128L47.3853 27.1292L47.385 27.2244ZM31.158 34.7193C30.2061 36.033 28.9017 37.0381 27.3834 37.6037L27.3271 37.6222C25.8522 38.1383 24.1519 38.4365 22.382 38.4365C22.2384 38.4365 22.0952 38.4345 21.9525 38.4305L21.9735 38.4311L20.7839 38.4073L19.7609 38.3835V46.0212C19.7635 46.0357 19.7651 46.0524 19.7651 46.0694C19.7651 46.2202 19.6481 46.3437 19.5001 46.3543H14.8833C14.6929 46.3543 14.5977 46.2591 14.5977 46.045V21.5616C14.5977 21.395 14.6691 21.2998 14.8357 21.2998L16.1681 21.276L17.9765 21.2284L20.0465 21.1808L22.2117 21.157C22.3314 21.1533 22.4722 21.1512 22.6135 21.1512C24.2242 21.1512 25.7712 21.4234 27.2112 21.9243L27.1131 21.8946C28.3574 22.3246 29.4229 22.9914 30.3033 23.8475L30.3014 23.8456C31.0479 24.5945 31.6387 25.4989 32.0209 26.5061L32.0383 26.5581C32.383 27.478 32.5835 28.5409 32.5855 29.6504V29.6513C32.5898 29.7531 32.5923 29.8724 32.5923 29.9923C32.5923 31.7545 32.0565 33.3916 31.1387 34.7495L31.158 34.7194V34.7193ZM48.0275 7.00006H11.1479C5.56303 7.00006 1.03564 11.5274 1.03564 17.1122V52.5728C1.03564 58.1529 5.55922 62.6765 11.1394 62.6765H48.036C53.6161 62.6765 58.1398 58.1529 58.1398 52.5728V52.5638V52.5643V17.1123V17.1038C58.1398 11.5236 53.6161 7 48.036 7H48.0271L48.0275 7.00006ZM25.1859 26.3202C24.4317 26.0158 23.5571 25.8393 22.6413 25.8393C22.5488 25.8393 22.4567 25.8411 22.365 25.8447L22.3783 25.8442C21.5135 25.8262 20.6491 25.8421 19.785 25.8918V33.8864L20.713 33.934H21.9846C22.9586 33.934 23.8962 33.7773 24.7732 33.4878L24.7104 33.5058C25.4934 33.2708 26.1556 32.8317 26.6569 32.25L26.6614 32.2446C27.1263 31.6354 27.4063 30.8634 27.4063 30.0259C27.4063 29.9444 27.4036 29.8633 27.3984 29.783L27.399 29.7939C27.4047 29.7192 27.408 29.6321 27.408 29.5442C27.408 28.0803 26.4963 26.8293 25.2097 26.3282L25.1862 26.3201L25.1859 26.3202Z" fill="white"/>
</svg>
