<svg width="71" height="70" viewBox="0 0 71 70" fill="none" xmlns="http://www.w3.org/2000/svg">
<path d="M35.5002 29.4876C38.5043 29.4876 40.9543 31.9376 40.9543 35.0001C40.9543 37.9168 38.5043 40.396 35.5002 40.396C32.496 40.396 30.046 37.9168 30.046 35.0001C30.046 31.9376 32.496 29.4876 35.5002 29.4876ZM21.996 58.3335C23.8335 59.4418 27.8585 57.7501 32.496 53.3751C30.9793 51.6543 29.4918 49.7876 28.0918 47.8335C25.7002 47.6001 23.3377 47.2501 21.0918 46.7835C19.6043 53.0251 20.1585 57.3126 21.996 58.3335ZM24.0668 41.5918L23.221 40.1043C22.9002 40.9501 22.5793 41.7959 22.3752 42.6126C23.1627 42.7876 24.0377 42.9335 24.9418 43.0793C24.6502 42.5835 24.3585 42.0876 24.0668 41.5918ZM43.1418 39.3751L45.5043 35.0001L43.1418 30.6251C42.2668 29.0793 41.3335 27.7085 40.4877 26.3376C38.9127 26.2501 37.2502 26.2501 35.5002 26.2501C33.7502 26.2501 32.0877 26.2501 30.5127 26.3376C29.6668 27.7085 28.7335 29.0793 27.8585 30.6251L25.496 35.0001L27.8585 39.3751C28.7335 40.921 29.6668 42.2918 30.5127 43.6626C32.0877 43.7501 33.7502 43.7501 35.5002 43.7501C37.2502 43.7501 38.9127 43.7501 40.4877 43.6626C41.3335 42.2918 42.2668 40.921 43.1418 39.3751ZM35.5002 19.7751C34.946 20.4168 34.3627 21.0876 33.7793 21.8751C34.3627 21.8751 34.9168 21.8751 35.5002 21.8751C36.0835 21.8751 36.6377 21.8751 37.221 21.8751C36.6377 21.0876 36.0543 20.4168 35.5002 19.7751ZM35.5002 50.2251C36.0543 49.5834 36.6377 48.9126 37.221 48.1251C36.6377 48.1251 36.0835 48.1251 35.5002 48.1251C34.9168 48.1251 34.3627 48.1251 33.7793 48.1251C34.3627 48.9126 34.946 49.5834 35.5002 50.2251ZM48.9752 11.6668C47.1668 10.5585 43.1418 12.2501 38.5043 16.6251C40.021 18.346 41.5085 20.2126 42.9085 22.1668C45.3002 22.4001 47.6627 22.7501 49.9085 23.2168C51.396 16.9751 50.8418 12.6876 48.9752 11.6668ZM46.9335 28.4085L47.7793 29.896C48.1002 29.0501 48.421 28.2043 48.6252 27.3876C47.8377 27.2126 46.9627 27.0668 46.0585 26.9209C46.3502 27.4168 46.6418 27.9126 46.9335 28.4085ZM51.1627 7.84595C55.4502 10.296 55.9168 16.7418 54.1085 24.2668C61.5168 26.4543 66.8543 30.071 66.8543 35.0001C66.8543 39.9293 61.5168 43.546 54.1085 45.7335C55.9168 53.2584 55.4502 59.7043 51.1627 62.1543C46.9043 64.6043 41.1002 61.8043 35.5002 56.4668C29.9002 61.8043 24.096 64.6043 19.8085 62.1543C15.5502 59.7043 15.0835 53.2584 16.8918 45.7335C9.4835 43.546 4.146 39.9293 4.146 35.0001C4.146 30.071 9.4835 26.4543 16.8918 24.2668C15.0835 16.7418 15.5502 10.296 19.8085 7.84595C24.096 5.39595 29.9002 8.19595 35.5002 13.5335C41.1002 8.19595 46.9043 5.39595 51.1627 7.84595ZM50.3168 35.0001C51.3085 37.1876 52.1835 39.3751 52.9127 41.5918C59.0377 39.7543 62.4793 37.1293 62.4793 35.0001C62.4793 32.871 59.0377 30.246 52.9127 28.4085C52.1835 30.6251 51.3085 32.8126 50.3168 35.0001ZM20.6835 35.0001C19.6918 32.8126 18.8168 30.6251 18.0877 28.4085C11.9627 30.246 8.521 32.871 8.521 35.0001C8.521 37.1293 11.9627 39.7543 18.0877 41.5918C18.8168 39.3751 19.6918 37.1876 20.6835 35.0001ZM46.9335 41.5918C46.6418 42.0876 46.3502 42.5835 46.0585 43.0793C46.9627 42.9335 47.8377 42.7876 48.6252 42.6126C48.421 41.7959 48.1002 40.9501 47.7793 40.1043L46.9335 41.5918ZM38.5043 53.3751C43.1418 57.7501 47.1668 59.4418 48.9752 58.3335C50.8418 57.3126 51.396 53.0251 49.9085 46.7835C47.6627 47.2501 45.3002 47.6001 42.9085 47.8335C41.5085 49.7876 40.021 51.6543 38.5043 53.3751ZM24.0668 28.4085C24.3585 27.9126 24.6502 27.4168 24.9418 26.9209C24.0377 27.0668 23.1627 27.2126 22.3752 27.3876C22.5793 28.2043 22.9002 29.0501 23.221 29.896L24.0668 28.4085ZM32.496 16.6251C27.8585 12.2501 23.8335 10.5585 21.996 11.6668C20.1585 12.6876 19.6043 16.9751 21.0918 23.2168C23.3377 22.7501 25.7002 22.4001 28.0918 22.1668C29.4918 20.2126 30.9793 18.346 32.496 16.6251Z" fill="white"/>
</svg>
