<svg width="70" height="70" viewBox="0 0 70 70" fill="none" xmlns="http://www.w3.org/2000/svg">
<path fill-rule="evenodd" clip-rule="evenodd" d="M35 8C40.5379 8 45.9514 9.5542 50.556 12.4661C55.1605 15.3779 58.7494 19.5166 60.8686 24.3589C62.9879 29.2011 63.5424 34.5294 62.462 39.6699C61.3816 44.8104 58.7149 49.5322 54.799 53.2383C50.8831 56.9444 45.894 59.4683 40.4625 60.4908C35.0311 61.5133 29.4012 60.9885 24.2849 58.9828C19.1685 56.9771 14.7955 53.5805 11.7189 49.2226C8.64217 44.8647 7 39.7412 7 34.5C7 27.4718 9.94999 20.7314 15.201 15.7617C20.452 10.792 27.5739 8 35 8Z" fill="white"/>
<path d="M52.7786 18.8955C51.4957 14.1922 43.1528 12.6522 35.2572 15.2668C30.3124 16.8204 25.7439 19.2705 21.8131 22.4768C17.4646 26.2796 16.7705 29.5904 17.0559 30.9733C18.0676 35.8544 25.2166 39.0442 28.1567 41.4109V41.4242C27.2907 41.8233 20.945 44.8296 19.4557 47.8944C17.8895 51.1334 19.7046 53.4566 20.9086 53.7688C22.7162 54.1756 24.6147 54.0432 26.3378 53.3901C28.0608 52.7369 29.5219 51.5958 30.5161 50.1269C31.3378 48.9367 31.8518 47.5841 32.0176 46.176C32.1834 44.768 31.9963 43.3432 31.4712 42.0144C32.8874 41.678 34.3595 41.599 35.8076 41.7817C40.7773 42.3247 41.7526 45.225 41.5664 46.4396C41.4789 46.8719 41.2928 47.2816 41.0208 47.6407C40.7488 47.9998 40.3973 48.2999 39.9901 48.5206C39.6421 48.7231 39.5348 48.7912 39.5652 48.9425C39.6077 49.1601 39.7675 49.1525 40.065 49.1052C40.8118 48.8853 41.4699 48.4591 41.9525 47.8826C42.435 47.3061 42.7195 46.6064 42.7684 45.8758C42.8878 43.0379 39.9719 39.8482 34.808 39.9296C33.3081 39.8895 31.8115 40.0813 30.3785 40.4971C30.3077 40.4215 30.2349 40.3458 30.16 40.2701C26.9669 37.0861 21.0664 34.8328 21.3153 30.5514C21.4064 28.9944 21.9851 24.8966 32.6469 19.9247C41.3884 15.8514 48.3856 16.9733 49.5957 19.4574C51.3237 23.0066 45.8562 29.5998 36.7788 30.5514C35.7755 30.7419 34.7393 30.7187 33.7469 30.4835C32.7545 30.2483 31.8315 29.8073 31.0463 29.1931C30.5687 28.7012 30.4979 28.6804 30.3199 28.7712C30.0305 28.9206 30.2146 29.3558 30.3199 29.6131C30.6674 30.1988 31.1366 30.7136 31.6999 31.1275C32.2631 31.5414 32.9091 31.846 33.5999 32.0233C37.1689 32.7484 40.8915 32.4042 44.2395 31.0396C49.7454 29.055 54.0392 23.5212 52.7786 18.8955ZM29.3789 42.8677C29.7808 44.163 29.7604 45.5411 29.3203 46.8255C29.273 46.9592 29.2211 47.0916 29.1644 47.2228C29.1078 47.354 29.0464 47.4801 28.9803 47.6012C28.6398 48.2526 28.1986 48.8537 27.6711 49.3852C26.026 51.0634 23.7253 51.699 22.7399 51.1636C21.6755 50.5866 22.2077 48.2198 24.1158 46.3336C25.582 44.9781 27.2724 43.8524 29.1219 43.0001L29.3789 42.8677Z" fill="#1E1C1C"/>
</svg>
