<svg width="70" height="70" viewBox="0 0 70 70" fill="none" xmlns="http://www.w3.org/2000/svg">
<path d="M45.2621 8.54288L44.9905 14.6421C44.982 14.9846 45.3768 15.1955 45.6502 14.9846L48.0308 13.1827L50.052 14.7551C50.3152 14.9306 50.6679 14.7551 50.6847 14.4379L50.457 8.23413L53.4534 8.00636C55.009 7.90007 56.3351 9.14015 56.3351 10.7042V59.2986C56.3351 60.8457 55.0427 62.0757 53.4973 61.9964L17.275 60.38C15.8696 60.3193 14.7358 59.1855 14.692 57.77L13.0048 13.2265C12.917 11.7334 14.0508 10.4494 15.544 10.3701L45.2368 8.49902L45.2621 8.54288ZM38.3565 28.9292C38.3565 29.9837 45.4663 29.4657 46.4313 28.7453C46.4313 21.5477 42.5643 17.7431 35.5 17.7431C28.4172 17.7431 24.481 21.6186 24.481 27.4006C24.481 37.409 37.9785 37.5844 37.9785 43.0509C37.9785 44.6335 37.2581 45.5294 35.6148 45.5294C33.4535 45.5294 32.5745 44.4311 32.6892 40.6703C32.6892 39.8622 24.481 39.5888 24.2094 40.6703C23.6037 49.7389 29.2271 52.3659 35.6772 52.3659C41.9603 52.3659 46.8633 49.0185 46.8633 42.9632C46.8633 32.2344 33.138 32.5229 33.138 27.2167C33.138 25.0368 34.7644 24.7466 35.6772 24.7466C36.6963 24.7466 38.4897 24.9052 38.3581 28.9477L38.3565 28.9292Z" fill="white"/>
</svg>
