<svg width="70" height="70" viewBox="0 0 70 70" fill="none" xmlns="http://www.w3.org/2000/svg">
<path d="M55.0663 15.1221C50.1217 7.94237 40.4435 5.86617 32.9902 10.3885L20.3811 18.4045C16.9315 20.5685 14.5648 24.0891 13.8704 28.0912C13.2538 31.4175 13.791 34.857 15.3756 37.8488C14.2928 39.4774 13.563 41.3154 13.237 43.2514C12.5156 47.3159 13.4566 51.5038 15.8503 54.8741C20.8034 62.0369 30.4562 64.1215 37.9264 59.6515L50.544 51.6271C53.975 49.4631 56.3333 45.9425 57.0293 41.9404C57.6358 38.6226 57.1003 35.1915 55.5157 32.2183C58.8673 26.956 58.6916 20.1901 55.0663 15.1221ZM31.7317 55.5701C27.6756 56.6259 23.3898 55.0329 21.0062 51.5849C19.5449 49.5611 19.0094 47.0625 19.4317 44.5809L19.6783 43.3848L19.9064 42.6449L20.5838 43.0943C22.0704 44.2211 23.7344 45.0303 25.5116 45.5759L25.9694 45.7347L25.917 46.1841C25.8731 46.8091 26.0572 47.5119 26.4187 48.0491C27.1587 49.1134 28.4426 49.6236 29.6825 49.2891C29.9545 49.2013 30.2197 49.1134 30.4478 48.9715L43.013 40.9556C43.6465 40.5501 44.0519 39.9436 44.209 39.2223C44.3492 38.4739 44.1651 37.7086 43.7597 37.1022C43.0113 36.0632 41.7358 35.597 40.4959 35.9061C40.2239 36.0024 39.9333 36.1088 39.7036 36.249L34.9515 39.2662C30.4562 41.9404 24.6483 40.6836 21.665 36.3808C20.2139 34.357 19.6412 31.8314 20.0804 29.3768C20.5196 26.9475 21.9724 24.8189 24.0757 23.5164L36.6138 15.5005C37.4061 15.0072 38.2592 14.6474 39.1833 14.3737C43.2393 13.3179 47.515 14.9109 49.9088 18.342C51.5981 20.7172 52.0728 23.753 51.1927 26.5336L50.9646 27.282L50.3142 26.8326C48.8091 25.7329 47.1383 24.8966 45.3611 24.351L44.9118 24.2192L44.9557 23.7698C44.9996 23.1093 44.8155 22.415 44.454 21.8778C43.714 20.8135 42.4302 20.3641 41.1902 20.6817C40.9182 20.7696 40.653 20.8574 40.4249 20.9993L27.8344 29.0845C27.2009 29.5069 26.7955 30.0964 26.6637 30.8347C26.5319 31.556 26.7076 32.3483 27.1131 32.9295C27.8344 33.9938 29.1453 34.4431 30.3599 34.1255C30.6505 34.0377 30.9225 33.9498 31.1438 33.8079L35.9482 30.7452C36.7321 30.2265 37.6105 29.8481 38.5092 29.6015C42.5923 28.5372 46.8511 30.1387 49.2348 33.5866C50.696 35.6105 51.2586 38.109 50.8531 40.5636C50.4308 42.9929 48.9966 45.1215 46.9119 46.424L34.3467 54.4213C33.5291 54.9146 32.649 55.3015 31.7334 55.565L31.7317 55.5701Z" fill="white"/>
</svg>
