<svg width="70" height="70" viewBox="0 0 70 70" fill="none" xmlns="http://www.w3.org/2000/svg">
<path d="M35.0002 5.83325C31.1699 5.83325 27.3772 6.58767 23.8386 8.05343C20.2999 9.51919 17.0846 11.6676 14.3762 14.376C8.9064 19.8458 5.8335 27.2644 5.8335 34.9999C5.8335 42.7354 8.9064 50.1541 14.3762 55.6239C17.0846 58.3322 20.2999 60.4806 23.8386 61.9464C27.3772 63.4122 31.1699 64.1666 35.0002 64.1666C42.7356 64.1666 50.1543 61.0937 55.6241 55.6239C61.0939 50.1541 64.1668 42.7354 64.1668 34.9999C64.1668 31.1697 63.4124 27.377 61.9466 23.8383C60.4809 20.2997 58.3325 17.0843 55.6241 14.376C52.9157 11.6676 49.7004 9.51919 46.1618 8.05343C42.6231 6.58767 38.8304 5.83325 35.0002 5.83325ZM47.746 16.6249C50.721 16.5374 52.9377 17.8791 53.1127 19.9499C53.1418 20.8541 52.6168 22.6041 50.8085 22.6624C49.4377 22.7208 48.5043 21.8749 48.4752 20.6791C48.446 20.2124 49.2335 18.7249 49.2335 18.4624C49.2043 17.6749 48.0377 17.6458 47.7168 17.6749C43.3418 17.8208 42.1752 23.7124 41.2418 28.5249L40.8335 31.0624C43.2835 31.4416 45.0918 30.9749 46.0835 30.3333C47.4835 29.4291 45.6752 28.4958 45.9085 27.4458C46.1418 26.3666 47.1043 25.8708 47.8627 25.8416C48.9418 25.8124 49.7002 26.9207 49.671 28.0583C49.5835 29.9249 47.1627 32.4916 42.2918 32.3749C41.6502 32.3749 41.096 32.3166 40.571 32.2583C38.7918 41.2999 37.6835 46.6666 33.7168 51.2749C30.3043 55.3291 26.8335 55.9416 25.2877 55.9999C22.371 56.1166 20.4168 54.5707 20.4168 52.4999C20.3293 50.5166 22.0793 49.4082 23.246 49.3791C24.7918 49.3208 25.871 50.4582 25.9002 51.7416C25.9585 52.8207 25.3752 53.1707 24.996 53.3749C24.7918 53.5791 24.3543 53.8124 24.3835 54.2499C24.3835 54.4541 24.5877 54.8916 25.2293 54.8624C26.4543 54.8332 27.2418 54.2208 27.8252 53.8124C30.6252 51.4791 31.7335 47.3666 33.1627 39.8999C33.921 35.6708 34.4752 32.9583 35.2918 30.2749C33.3085 28.7874 32.0835 26.9208 29.4293 26.2499C27.5918 25.6958 26.4835 26.1333 25.696 27.1249C24.7918 28.3208 25.0835 29.8374 25.9585 30.7416C29.3127 34.4749 30.3043 36.1083 29.9252 38.3249C29.3418 41.8541 25.1418 44.5374 20.1835 43.0207C15.9543 41.7082 15.1668 38.7332 15.6627 37.0708C16.1293 35.6416 17.2668 35.3499 18.4043 35.6999C19.6293 36.0791 20.096 37.5374 19.746 38.6749C19.6877 38.7916 19.1043 39.8708 18.9585 40.2207C18.696 41.1249 19.921 41.7374 20.7668 41.9999C22.6627 42.5832 24.5002 41.5916 24.9377 40.0457C25.3752 38.6457 24.5002 37.6541 24.121 37.2749C21.5252 34.4166 19.7168 31.8791 20.5918 29.0208C20.9418 27.9416 21.6418 26.7749 22.6918 25.9874C24.8793 24.3833 27.271 24.0916 29.5168 24.7916C32.4627 25.5791 33.8627 27.5333 35.7002 29.0208C36.721 26.0457 38.1502 23.0999 40.2793 20.6208C42.2043 18.3749 44.771 16.7416 47.746 16.6249Z" fill="white"/>
</svg>
