<svg width="72" height="71" viewBox="0 0 72 71" fill="none" xmlns="http://www.w3.org/2000/svg">
<path fill-rule="evenodd" clip-rule="evenodd" d="M27.4233 6.39588L27.5 6.39588H44.5L44.5768 6.39588C47.8116 6.39586 50.3414 6.39585 52.3142 6.66108C54.3312 6.93227 55.915 7.49713 57.1569 8.73903C58.3988 9.98092 58.9636 11.5646 59.2348 13.5817C59.5 15.5544 59.5 18.0843 59.5 21.319V21.3191V21.3959V49.6042V49.681V49.6811C59.5 49.8491 59.5 50.0152 59.5 50.1794H59.5V52.1794H59.4946C59.4802 54.2576 59.4275 55.985 59.2348 57.4184C58.9636 59.4355 58.3988 61.0192 57.1569 62.2611C55.915 63.503 54.3312 64.0678 52.3142 64.339C50.3414 64.6042 47.8116 64.6042 44.5769 64.6042H44.5768H44.5H27.5H27.4232H27.4231C24.1884 64.6042 21.6586 64.6042 19.6859 64.339C17.6688 64.0678 16.085 63.503 14.8432 62.2611C13.6013 61.0192 13.0364 59.4355 12.7652 57.4184C12.5725 55.985 12.5198 54.2576 12.5054 52.1794H12.5V50.1794H12.5C12.5 50.0151 12.5 49.849 12.5 49.681L12.5 49.6042V21.3959L12.5 21.3191C12.5 18.0843 12.5 15.5545 12.7652 13.5817C13.0364 11.5646 13.6013 9.98092 14.8432 8.73903C16.085 7.49713 17.6688 6.93227 19.6859 6.66108C21.6586 6.39585 24.1885 6.39586 27.4233 6.39588ZM14.5057 52.1794C14.5201 54.2242 14.5705 55.8366 14.7474 57.1519C14.9887 58.9472 15.449 60.0385 16.2574 60.8469C17.0657 61.6552 18.157 62.1155 19.9524 62.3568C21.7764 62.6021 24.1719 62.6042 27.5 62.6042H44.5C47.8281 62.6042 50.2236 62.6021 52.0477 62.3568C53.843 62.1155 54.9343 61.6552 55.7426 60.8469C56.551 60.0385 57.0113 58.9472 57.2526 57.1519C57.4295 55.8366 57.4799 54.2242 57.4943 52.1794H36H14.5057ZM57.4999 50.1794H36H14.5001C14.5 49.9908 14.5 49.7991 14.5 49.6042V21.3959C14.5 18.0678 14.5021 15.6723 14.7474 13.8482C14.9887 12.0529 15.449 10.9616 16.2574 10.1532C17.0657 9.34488 18.157 8.88462 19.9524 8.64325C21.7764 8.398 24.1719 8.39588 27.5 8.39588H44.5C47.8281 8.39588 50.2236 8.398 52.0477 8.64325C53.843 8.88462 54.9343 9.34488 55.7426 10.1532C56.551 10.9616 57.0113 12.0529 57.2526 13.8482C57.4979 15.6723 57.5 18.0678 57.5 21.3959V49.6042C57.5 49.7991 57.5 49.9908 57.4999 50.1794ZM38.0994 57.3916C38.0994 58.5353 37.1592 59.4624 35.9994 59.4624C34.8396 59.4624 33.8994 58.5353 33.8994 57.3916C33.8994 56.2479 34.8396 55.3207 35.9994 55.3207C37.1592 55.3207 38.0994 56.2479 38.0994 57.3916Z" fill="#F5F5F5"/>
</svg>
