<svg width="70" height="70" viewBox="0 0 70 70" fill="none" xmlns="http://www.w3.org/2000/svg">
<path d="M35.0002 17.5C27.2127 17.5 22.371 21.3792 20.4168 29.1667C23.3335 25.2875 26.746 23.8292 30.6252 24.7917C32.8418 25.3458 34.446 26.95 36.196 28.7292C39.0543 31.6458 42.2918 35 49.5835 35C57.371 35 62.2127 31.1208 64.1668 23.3333C61.2502 27.2125 57.8377 28.6708 53.9585 27.7083C51.7418 27.1542 50.1668 25.55 48.3877 23.7708C45.5293 20.8542 42.2918 17.5 35.0002 17.5ZM20.4168 35C12.6293 35 7.78766 38.8792 5.8335 46.6667C8.75016 42.7875 12.1627 41.3292 16.0418 42.2917C18.2585 42.8458 19.8335 44.45 21.6127 46.2292C24.471 49.1458 27.7085 52.5 35.0002 52.5C42.7877 52.5 47.6293 48.6208 49.5835 40.8333C46.6668 44.7125 43.2543 46.1708 39.3752 45.2083C37.1585 44.6542 35.5835 43.05 33.8043 41.2708C30.946 38.3542 27.7085 35 20.4168 35Z" fill="white"/>
</svg>
