<svg width="70" height="70" viewBox="0 0 70 70" fill="none" xmlns="http://www.w3.org/2000/svg">
<path fill-rule="evenodd" clip-rule="evenodd" d="M12.5192 14.675C12.7105 14.9669 13.4476 14.5937 14.4944 14.0636C16.2134 13.1932 18.7673 11.9001 21.1096 12.4359C25.0772 13.3445 28.8373 19.5947 30.4508 38.7506C24.8844 34.1488 19.975 32.4327 16.7699 31.5789C12.7737 30.5144 8.29339 30.1518 8.01373 31.0139C7.88188 31.4209 8.71062 31.8533 10.033 32.5431C12.2506 33.7 15.8563 35.5811 18.6485 39.2816C21.3912 43.3983 23.0248 48.1532 23.3911 53.0863C23.818 56.036 23.9312 59.0226 23.7286 61.9962H38.1108L38.1109 61.9999L50.7573 61.996C50.1401 57.0454 49.8932 52.8161 49.7929 49.5587C49.6116 43.3256 49.9858 40.8011 51.5287 38.4579L51.5321 38.4528C51.9135 37.8698 54.0202 34.6496 56.5047 34.865C58.5677 35.0451 59.8925 37.4408 60.5697 38.6654C60.8206 39.1192 60.9826 39.4122 61.0603 39.372C61.3978 39.1985 60.3659 32.5392 56.1769 30.8266C52.1654 29.1866 46.7815 32.7252 43.3189 37.2513C43.3804 37.1626 43.4426 37.0744 43.5054 36.9865C42.893 30.6545 40.6555 24.5881 37.0096 19.3749L36.986 19.3418C34.9691 16.5122 28.1078 6.88644 20.5271 8.10627C15.6205 8.89313 11.9908 13.8862 12.5192 14.675ZM37.0638 45.2622C37.0634 46.0444 36.7918 46.8022 36.2953 47.4065C35.7988 48.0109 35.1081 48.4244 34.3409 48.5767C33.5737 48.7289 32.7774 48.6104 32.0877 48.2414C31.3981 47.8724 30.8577 47.2757 30.5587 46.553C30.2597 45.8302 30.2205 45.0262 30.4479 44.2778C30.6752 43.5295 31.1551 42.8831 31.8056 42.4488C32.4561 42.0145 33.2371 41.8192 34.0155 41.8962C34.7939 41.9731 35.5215 42.3176 36.0744 42.8708C36.3887 43.1846 36.638 43.5574 36.8078 43.9678C36.9775 44.3782 37.0646 44.8181 37.0638 45.2622ZM45.3117 47.406C45.8082 46.8016 46.0798 46.0438 46.0802 45.2617C46.081 44.8176 45.9939 44.3777 45.8241 43.9673C45.6543 43.5569 45.4051 43.1841 45.0908 42.8703C44.5379 42.317 43.8103 41.9726 43.0319 41.8956C42.2535 41.8187 41.4725 42.014 40.822 42.4482C40.1714 42.8825 39.6916 43.5289 39.4642 44.2773C39.2369 45.0256 39.276 45.8297 39.5751 46.5524C39.8741 47.2751 40.4145 47.8718 41.1041 48.2408C41.7938 48.6098 42.5901 48.7283 43.3573 48.5761C44.1245 48.4239 44.8152 48.0103 45.3117 47.406Z" fill="white"/>
</svg>
